<svg xmlns="http://www.w3.org/2000/svg" version="1.1" xmlns:xlink="http://www.w3.org/1999/xlink" width="512" height="512" x="0" y="0" viewBox="0 0 512 512" style="enable-background:new 0 0 512 512" xml:space="preserve" class=""><circle r="256" cx="256" cy="256" fill="#ffffff" shape="circle"></circle><g transform="matrix(0.7,0,0,0.7,76.81050567626954,76.79774825870993)"><path d="M409.13 159.05h-14.78v-13.22c0-7.44-5.55-13.82-12.87-14.84-12.81-1.85-27.21-2.92-42.09-3.15v-39.3l35.63-14.55c5.42-2.21 8.93-7.41 8.93-13.26 0-5.86-3.5-11.08-8.92-13.28L261.41 1.06c-3.56-1.44-7.3-1.43-10.81.01L137 47.44a14.293 14.293 0 0 0-8.93 13.29c0 5.85 3.5 11.05 8.92 13.25l12.82 5.23v29.36c0 4.42 3.58 8.01 8.01 8.01s8.01-3.58 8.01-8.01V85.75l6.83 2.79v39.29c-14.9.23-29.3 1.3-42.04 3.14-7.37 1.02-12.92 7.4-12.92 14.85v13.22h-14.81c-8.04 0-14.58 6.54-14.58 14.58v186.21c0 4.35 1.84 8.3 5.17 11.14 2.67 2.27 5.91 3.46 9.34 3.46.85 0 1.71-.07 2.58-.22l36-6.21c8.1-1.4 17.61-2.36 27.83-2.86 1.17 12.3 4.96 24.32 11.33 35.34.58 1.01 1.19 2 1.81 2.98l-13.44 13.46a12.94 12.94 0 0 0-15.7 1.9l-43.84 43.87c-5.45 5.43-8.45 12.67-8.46 20.4-.01 7.74 2.99 15.01 8.45 20.47C115 509.18 122.4 512 129.8 512s14.8-2.81 20.45-8.44l43.88-43.88c2.42-2.42 3.75-5.64 3.75-9.07 0-2.37-.65-4.64-1.85-6.61l13.46-13.46a87.766 87.766 0 0 0 46.72 13.49c14.78 0 29.75-3.76 43.44-11.66 20.17-11.64 34.59-30.44 40.62-52.93a87.56 87.56 0 0 0 2.57-14.31c10.23.49 19.75 1.46 27.84 2.86l36.04 6.21c.85.15 1.7.22 2.54.22 3.39 0 6.64-1.18 9.36-3.46 3.31-2.82 5.14-6.78 5.14-11.14V173.63c-.05-8.04-6.59-14.58-14.63-14.58zm-74.64 159.96c-.93-1.92-1.91-3.82-2.99-5.69a87.575 87.575 0 0 0-14.98-19.19c12.26-.52 24.69-.45 36.77.2 4.41.22 8.19-3.14 8.43-7.56s-3.14-8.19-7.56-8.43c-19.15-1.05-39.17-.64-58.08 1.14a87.88 87.88 0 0 0-17.52-6.79c-4.82-1.29-9.7-2.14-14.57-2.6V168.94c22.13-1.32 44.12-8.09 64.74-20.36 2.22-1.31 4.13-2.93 5.69-4.79 15.53.05 30.59 1.04 43.89 2.91v175.05c-13.31-1.74-28.34-2.67-43.82-2.74zM188.66 129.95V95.08l61.91 25.27c1.77.73 3.59 1.09 5.42 1.09 1.82 0 3.65-.36 5.44-1.08l61.93-25.28v34.88c0 2.13-.92 3.76-2.77 4.85-41.05 24.41-88.13 24.41-129.19 0-1.82-1.09-2.74-2.72-2.74-4.86zm-41.81-69.24 109.16-44.56 109.13 44.56-36.79 15.02-.15.06-72.19 29.47-72.09-29.42c-.14-.06-.28-.12-.43-.17zm-13.15 86c13.25-1.87 28.32-2.86 43.88-2.91a21.89 21.89 0 0 0 5.65 4.77c20.64 12.27 42.63 19.05 64.77 20.37v101.13c-11.08 1.02-21.92 4.17-32.03 9.42-18.91-1.78-38.95-2.19-58.14-1.14-4.42.24-7.8 4.02-7.56 8.43.24 4.42 4.02 7.78 8.43 7.56 12.09-.66 24.53-.72 36.79-.21-7.44 7.14-13.51 15.55-17.99 24.88-15.47.07-30.48 1.01-43.79 2.76V146.71zm4.95 205.52-34.34 5.92V175.06h13.38V322.9c0 4.42 1.83 8.43 5.15 11.3 2.76 2.43 6.18 3.72 9.8 3.72.69 0 1.4-.05 2.1-.14 11.22-1.52 23.81-2.43 36.88-2.69-1.2 4.65-2.01 9.34-2.44 14.03-11.15.52-21.6 1.57-30.53 3.11zm.24 140.01c-5.04 5.02-13.21 5.02-18.22.01-2.43-2.43-3.76-5.67-3.76-9.13 0-3.45 1.33-6.67 3.76-9.09l41.6-41.63 18.23 18.23zm46.05-59.82-4.44-4.44 11.69-11.71c1.43 1.54 2.92 3.03 4.44 4.45zm139.81-57.09c-4.92 18.36-16.69 33.7-33.15 43.2-33.98 19.61-77.59 7.93-97.21-26.04-6.39-11.06-9.61-23.34-9.56-35.77v-.05c.03-6.06.83-12.16 2.44-18.17 4.92-18.36 16.7-33.7 33.16-43.2 10.9-6.3 22.98-9.53 35.24-9.57.11 0 .22.02.33.02.1 0 .19-.01.28-.01 6.05.03 12.15.84 18.15 2.45a71.275 71.275 0 0 1 15.81 6.33c.22.13.45.26.68.37 11.02 6.18 20.23 15.23 26.71 26.46 9.51 16.44 12.03 35.62 7.12 53.98zm82.95-17.18-34.34-5.92c-8.91-1.54-19.34-2.59-30.49-3.11-.42-4.73-1.25-9.42-2.45-14.03 13.07.26 25.66 1.16 36.86 2.69.71.1 1.41.14 2.1.14 3.6 0 7.02-1.28 9.75-3.67 3.36-2.88 5.21-6.91 5.21-11.35V175.06h13.35v183.09zM361.73 175.8c-.24 4.42-4.03 7.78-8.44 7.56-21.09-1.16-43.73-.47-63.74 1.94a8.01 8.01 0 0 1-1.92-15.9c20.91-2.52 44.54-3.24 66.54-2.03 4.42.24 7.81 4.01 7.56 8.43zm0 36.99c-.24 4.42-4.03 7.78-8.44 7.56-21.09-1.16-43.73-.47-63.74 1.94a8.01 8.01 0 0 1-1.92-15.9c20.91-2.52 44.54-3.24 66.54-2.03 4.42.24 7.81 4.02 7.56 8.43zm0 36.99c-.24 4.42-4.03 7.79-8.44 7.56-21.09-1.16-43.73-.47-63.74 1.94a8.01 8.01 0 0 1-1.92-15.9c20.91-2.52 44.54-3.24 66.54-2.03 4.42.24 7.81 4.02 7.56 8.43zm-211.46 0a8.001 8.001 0 0 1 7.56-8.43c22-1.21 45.64-.49 66.56 2.03 4.39.53 7.52 4.52 6.99 8.91a8.008 8.008 0 0 1-8.91 6.99c-20.03-2.41-42.68-3.1-63.77-1.94-4.42.23-8.19-3.14-8.43-7.56zm0-73.98a8.001 8.001 0 0 1 7.56-8.43c22-1.21 45.64-.49 66.56 2.03 4.39.53 7.52 4.52 6.99 8.91a8.008 8.008 0 0 1-8.91 6.99c-20.03-2.41-42.68-3.1-63.77-1.94-4.42.23-8.19-3.15-8.43-7.56zm0 36.99a8.001 8.001 0 0 1 7.56-8.43c22-1.21 45.64-.49 66.56 2.03 4.39.53 7.52 4.52 6.99 8.91a8.008 8.008 0 0 1-8.91 6.99c-20.03-2.41-42.68-3.1-63.77-1.94-4.42.23-8.19-3.14-8.43-7.56zM256 293.91c-16.83 0-32.64 6.56-44.53 18.46-11.91 11.89-18.46 27.71-18.46 44.53s6.56 32.65 18.46 44.55c11.89 11.91 27.71 18.46 44.53 18.46s32.65-6.56 44.55-18.46 18.46-27.73 18.46-44.55c0-16.83-6.56-32.64-18.46-44.53-11.9-11.91-27.72-18.46-44.55-18.46zm33.23 96.21c-8.88 8.88-20.68 13.77-33.23 13.77-12.54 0-24.33-4.89-33.2-13.77-8.88-8.88-13.77-20.68-13.77-33.23 0-12.54 4.89-24.33 13.77-33.21 8.87-8.88 20.66-13.77 33.2-13.77 12.55 0 24.35 4.89 33.23 13.77 8.88 8.87 13.77 20.66 13.77 33.2 0 12.56-4.89 24.36-13.77 33.24z" fill="#f7af18" opacity="1" data-original="#000000" class=""></path></g></svg>