<svg fill="none" height="512" viewBox="0 0 24 24" width="512" xmlns="http://www.w3.org/2000/svg"><path clip-rule="evenodd" d="m7.53033 3.46967c.29289.29289.29289.76777 0 1.06066l-1.71967 1.71967h9.18934c3.1756 0 5.75 2.57436 5.75 5.75 0 3.1756-2.5744 5.75-5.75 5.75h-6.99999c-.41422 0-.75-.3358-.75-.75s.33578-.75.75-.75h6.99999c2.3472 0 4.25-1.9028 4.25-4.25 0-2.34721-1.9028-4.25-4.25-4.25h-9.18934l1.71967 1.71967c.29289.29289.29289.76773 0 1.06063s-.76777.2929-1.06066 0l-3-2.99997c-.29289-.29289-.29289-.76777 0-1.06066l3-3c.29289-.29289.76777-.29289 1.06066 0z" fill="rgb(0,0,0)" fill-rule="evenodd"/></svg>