<svg xmlns="http://www.w3.org/2000/svg" version="1.1" xmlns:xlink="http://www.w3.org/1999/xlink" width="512" height="512" x="0" y="0" viewBox="0 0 512 512" style="enable-background:new 0 0 512 512" xml:space="preserve" class=""><g><g data-name="Layer 2"><circle cx="256" cy="256" r="256" fill="#f7af18" opacity="1" data-original="#ffc107"></circle><path fill="#ffffff" d="M195.37 175.85V161a11.91 11.91 0 0 0-18.87-9.66l-49.12 35.43a11.91 11.91 0 0 0 0 19.32l49.12 35.43a11.9 11.9 0 0 0 18.87-9.66V218h102.11a51.33 51.33 0 0 1 51.33 51.33 51.33 51.33 0 0 1-51.33 51.33h-165A11.48 11.48 0 0 0 121 332.18v19.22a11.48 11.48 0 0 0 11.48 11.49h165A93.52 93.52 0 0 0 391 269.37a93.52 93.52 0 0 0-93.52-93.52z" opacity="1" data-original="#ffffff"></path></g></g></svg>