<?xml version="1.0" encoding="UTF-8"?>
<svg xmlns="http://www.w3.org/2000/svg" id="Layer_1" data-name="Layer 1" viewBox="0 0 24 24">
  <path d="m23.551,17.005l-4.125,6.685-.852-.525,4.125-6.685.852.525ZM7.511,1.342l-.521-.854L.255,4.609l.521.854L7.511,1.342Zm14.478,11.508l-6.933,9.993c-.361.616-1.008,1.043-1.754,1.138-.104.014-.207.02-.31.02-.637,0-1.243-.249-1.7-.707l-1.282-1.283c-.769.657-1.727,1.033-2.75,1.033-1.138,0-2.208-.443-3.012-1.248-.805-.804-1.248-1.874-1.248-3.012,0-1.024.376-1.982,1.034-2.751l-3.328-3.329C.192,12.189-.061,11.48.012,10.757c.073-.723.463-1.367,1.068-1.769L10.805,2.263c3.028-1.928,6.857-1.607,9.503.722l2.038-2.038.707.707-2.05,2.05c2.221,2.513,2.652,6.195.986,9.145Zm-12.688,8.451l-4.56-4.562c-.471.579-.741,1.287-.741,2.044,0,.871.339,1.689.955,2.305,1.149,1.151,3.091,1.213,4.346.213Zm11.841-8.983c1.502-2.662,1.036-6.081-1.158-8.275-1.347-1.347-3.11-2.042-4.895-2.042-1.282,0-2.575.359-3.731,1.095L1.641,9.816c-.363.24-.591.618-.634,1.041-.042.423.105.838.406,1.139l10.586,10.59c.312.312.745.461,1.177.402.437-.056.814-.305,1.038-.684l6.928-9.986Z"/>
</svg>
