<svg xmlns="http://www.w3.org/2000/svg" version="1.1" xmlns:xlink="http://www.w3.org/1999/xlink" width="512" height="512" x="0" y="0" viewBox="0 0 512 512" style="enable-background:new 0 0 512 512" xml:space="preserve" class=""><circle r="256" cx="256" cy="256" fill="#ffffff" shape="circle"></circle><g transform="matrix(0.7,0,0,0.7,76.80014533996584,76.79983702898028)"><path d="M333.882 296.478H162.331c-2.936 0-5.312 2.376-5.312 5.312s2.376 5.312 5.312 5.312h171.551c2.936 0 5.312-2.376 5.312-5.312s-2.376-5.312-5.312-5.312zM284.544 337.257H162.331c-2.936 0-5.312 2.376-5.312 5.312s2.376 5.312 5.312 5.312h122.213c2.936 0 5.312-2.376 5.312-5.312s-2.376-5.312-5.312-5.312zM284.544 378.036H162.331c-2.936 0-5.312 2.376-5.312 5.312s2.376 5.312 5.312 5.312h122.213c2.936 0 5.312-2.376 5.312-5.312s-2.376-5.312-5.312-5.312zM284.544 418.815H162.331c-2.936 0-5.312 2.376-5.312 5.312s2.376 5.312 5.312 5.312h122.213c2.936 0 5.312-2.376 5.312-5.312s-2.376-5.312-5.312-5.312zM83.094 63.579 70.345 39.41c-1.168-2.179-3.028-3.826-5.153-4.888-.266-2.709-2.444-4.833-5.206-4.833s-4.94 2.124-5.206 4.833c-2.124 1.062-3.984 2.709-5.153 4.888L36.88 63.579c-.266.585-.638 2.019-.638 2.498v170.887c0 9.667 7.915 17.583 17.583 17.583h12.324c9.668 0 17.582-7.916 17.582-17.583V66.077c0-.479-.371-1.966-.637-2.498zM59.03 44.403c.425-.744 1.488-.796 1.912 0l8.659 16.361H50.372zm14.077 192.561c0 3.825-3.134 6.959-6.958 6.959H53.825c-3.825 0-6.959-3.135-6.959-6.959v-13.121h26.242v13.121zM315.92 182.25h-71.553v-71.553c0-2.922-2.391-5.312-5.312-5.312-45.312 0-82.178 36.865-82.178 82.177 0 45.365 36.866 82.23 82.178 82.23 45.311 0 82.177-36.865 82.177-82.23a5.294 5.294 0 0 0-5.312-5.312zm-76.865 76.918c-39.469 0-71.553-32.138-71.553-71.606 0-37.663 29.269-68.631 66.241-71.34v71.34a5.294 5.294 0 0 0 5.312 5.312h71.394c-2.762 37.025-33.732 66.294-71.394 66.294zM363.373 412.922h-3.917c-2.936 0-5.312 2.376-5.312 5.312s2.376 5.312 5.312 5.312h3.917c2.936 0 5.312-2.376 5.312-5.312s-2.376-5.312-5.312-5.312zM389.119 412.922h-3.917c-2.936 0-5.312 2.376-5.312 5.312s2.376 5.312 5.312 5.312h3.917c2.936 0 5.312-2.376 5.312-5.312s-2.376-5.312-5.312-5.312zM414.865 412.922h-3.917c-2.936 0-5.312 2.376-5.312 5.312s2.376 5.312 5.312 5.312h3.917c2.936 0 5.312-2.376 5.312-5.312s-2.376-5.312-5.312-5.312zM440.616 412.922h-3.922c-2.936 0-5.312 2.376-5.312 5.312s2.376 5.312 5.312 5.312h3.922c2.936 0 5.312-2.376 5.312-5.312s-2.376-5.312-5.312-5.312zM363.373 435.006h-3.917c-2.936 0-5.312 2.376-5.312 5.312s2.376 5.312 5.312 5.312h3.917c2.936 0 5.312-2.376 5.312-5.312s-2.376-5.312-5.312-5.312zM389.119 435.006h-3.917c-2.936 0-5.312 2.376-5.312 5.312s2.376 5.312 5.312 5.312h3.917c2.936 0 5.312-2.376 5.312-5.312s-2.376-5.312-5.312-5.312zM414.865 435.006h-3.917c-2.936 0-5.312 2.376-5.312 5.312s2.376 5.312 5.312 5.312h3.917c2.936 0 5.312-2.376 5.312-5.312s-2.376-5.312-5.312-5.312zM440.616 435.006h-3.922c-2.936 0-5.312 2.376-5.312 5.312s2.376 5.312 5.312 5.312h3.922c2.936 0 5.312-2.376 5.312-5.312s-2.376-5.312-5.312-5.312zM363.373 457.089h-3.917c-2.936 0-5.312 2.376-5.312 5.312s2.376 5.312 5.312 5.312h3.917c2.936 0 5.312-2.376 5.312-5.312s-2.376-5.312-5.312-5.312zM389.119 457.089h-3.917c-2.936 0-5.312 2.376-5.312 5.312s2.376 5.312 5.312 5.312h3.917c2.936 0 5.312-2.376 5.312-5.312s-2.376-5.312-5.312-5.312zM414.865 457.089h-3.917c-2.936 0-5.312 2.376-5.312 5.312s2.376 5.312 5.312 5.312h3.917c2.936 0 5.312-2.376 5.312-5.312s-2.376-5.312-5.312-5.312zM363.373 479.172h-3.917c-2.936 0-5.312 2.376-5.312 5.312s2.376 5.312 5.312 5.312h3.917c2.936 0 5.312-2.376 5.312-5.312s-2.376-5.312-5.312-5.312zM389.119 479.172h-3.917c-2.936 0-5.312 2.376-5.312 5.312s2.376 5.312 5.312 5.312h3.917c2.936 0 5.312-2.376 5.312-5.312s-2.376-5.312-5.312-5.312zM414.865 479.172h-3.917c-2.936 0-5.312 2.376-5.312 5.312s2.376 5.312 5.312 5.312h3.917c2.936 0 5.312-2.376 5.312-5.312s-2.376-5.312-5.312-5.312zM438.655 457.089a5.31 5.31 0 0 0-5.312 5.312v22.083c0 2.936 2.376 5.312 5.312 5.312s5.312-2.376 5.312-5.312v-22.083a5.31 5.31 0 0 0-5.312-5.312z" fill="#f7af18" opacity="1" data-original="#000000" class=""></path><path d="M447.074 315.9h-45.099v-35.537l53.067-163.822c5.046-15.618-3.347-32.51-19.124-37.556l-33.943-10.996v-8.445c0-16.468-13.386-29.854-29.801-29.854h-88.338L199.852 2.491c-15.67-5.099-32.51 3.507-37.61 19.177l-2.603 8.021h-35.59c-16.467 0-29.854 13.386-29.854 29.854v172.109L41.129 395.474c-5.047 15.618 3.559 32.457 19.176 37.556l33.891 10.996v8.445c0 16.415 13.386 29.801 29.854 29.801h88.18l84.142 27.251c12.431 4.036 25.764-.585 33.253-10.73 5.206 7.33 13.705 12.165 23.374 12.165h94.076c15.777 0 28.684-12.856 28.684-28.686V344.586c-.001-15.83-12.908-28.686-28.685-28.686zm-122.761 28.686v127.063H124.05c-10.624 0-19.229-8.605-19.229-19.177V59.543c0-10.624 8.605-19.23 19.229-19.23h248.124c10.571 0 19.177 8.606 19.177 19.23V315.9h-38.353c-15.777 0-28.685 12.856-28.685 28.686zm140.821 137.687c0 9.987-8.128 18.062-18.06 18.062h-94.076c-9.934 0-18.062-8.074-18.062-18.062V344.586c0-9.987 8.128-18.062 18.062-18.062h94.076c9.933 0 18.06 8.074 18.06 18.062z" fill="#f7af18" opacity="1" data-original="#000000" class=""></path><path d="M339.346 169.502c0 2.922-2.39 5.312-5.312 5.312h-76.865a5.293 5.293 0 0 1-5.312-5.312V92.637c0-2.975 2.337-5.312 5.312-5.312 45.312 0 82.177 36.865 82.177 82.177zM438.096 334.175h-76.121c-8.605 0-15.617 7.012-15.617 15.617v36.547c0 8.552 7.012 15.564 15.617 15.564h76.121c8.605 0 15.618-7.012 15.618-15.564v-36.547c0-8.605-7.012-15.617-15.618-15.617zm4.994 52.164c0 2.708-2.231 4.94-4.994 4.94h-76.121c-2.762 0-4.993-2.232-4.993-4.94v-36.547a4.987 4.987 0 0 1 4.993-4.993h76.121a4.988 4.988 0 0 1 4.994 4.993z" fill="#f7af18" opacity="1" data-original="#000000" class=""></path></g></svg>