<svg xmlns="http://www.w3.org/2000/svg" version="1.1" xmlns:xlink="http://www.w3.org/1999/xlink" width="512" height="512" x="0" y="0" viewBox="0 0 21 21" style="enable-background:new 0 0 512 512" xml:space="preserve" fill-rule="evenodd"><g><g fill="#00ba00"><path fill-rule="nonzero" d="M4.814 1.05h11.372c.502 0 .96.196 1.293.513.338.32.548.765.548 1.255v15.364c0 .49-.21.935-.548 1.256a1.877 1.877 0 0 1-1.293.512H4.814c-.501 0-.96-.196-1.292-.512a1.727 1.727 0 0 1-.55-1.256V2.818c0-.49.21-.934.55-1.255a1.877 1.877 0 0 1 1.292-.513zm11.372.84H4.814c-.28 0-.533.107-.715.28a.894.894 0 0 0-.286.648v15.364c0 .251.11.481.286.649.182.172.435.28.715.28h11.372c.28 0 .533-.108.715-.28a.894.894 0 0 0 .287-.649V2.818a.894.894 0 0 0-.287-.649 1.037 1.037 0 0 0-.715-.279z" fill="#f7af18" opacity="1" data-original="#00ba00"></path><path fill-rule="nonzero" d="M6.101 3.232h8.913c.2 0 .386.073.523.191a.701.701 0 0 1 .252.534v2.444c0 .212-.096.4-.252.534a.805.805 0 0 1-.523.192H6.101a.805.805 0 0 1-.523-.192.701.701 0 0 1-.252-.534V3.957c0-.211.097-.4.252-.534a.805.805 0 0 1 .523-.191zm8.848.84H6.166v2.215h8.783z" fill="#f7af18" opacity="1" data-original="#00ba00"></path><path d="M5.963 8.379h1.692c.351 0 .636.285.636.637v.776a.637.637 0 0 1-.636.637H5.963a.637.637 0 0 1-.637-.637v-.776c0-.352.285-.637.637-.637zM9.724 8.379h1.692c.351 0 .636.285.636.637v.776a.637.637 0 0 1-.636.637H9.724a.637.637 0 0 1-.637-.637v-.776c0-.352.286-.637.637-.637zM13.485 8.379h1.692c.351 0 .636.285.636.637v.776a.637.637 0 0 1-.636.637h-1.692a.637.637 0 0 1-.636-.637v-.776c0-.352.285-.637.636-.637zM5.963 11.803h1.692c.351 0 .636.285.636.637v.776a.637.637 0 0 1-.636.637H5.963a.637.637 0 0 1-.637-.637v-.776c0-.352.285-.637.637-.637zM5.963 15.228h1.692c.351 0 .636.285.636.636v.777a.637.637 0 0 1-.636.637H5.963a.637.637 0 0 1-.637-.637v-.776c0-.352.285-.637.637-.637zM9.724 11.803h1.692c.351 0 .636.285.636.637v.776a.637.637 0 0 1-.636.637H9.724a.637.637 0 0 1-.637-.637v-.776c0-.352.286-.637.637-.637zM9.724 15.228h1.692c.351 0 .636.285.636.636v.777a.637.637 0 0 1-.636.637H9.724a.637.637 0 0 1-.637-.637v-.776c0-.352.286-.637.637-.637zM13.463 11.803h1.735c.339 0 .615.277.615.615v4.239a.617.617 0 0 1-.615.615h-1.735a.617.617 0 0 1-.615-.615v-4.239c0-.338.277-.615.615-.615z" fill="#f7af18" opacity="1" data-original="#00ba00"></path></g></g></svg>