<svg xmlns="http://www.w3.org/2000/svg" version="1.1" xmlns:xlink="http://www.w3.org/1999/xlink" width="512" height="512" x="0" y="0" viewBox="0 0 64 64" style="enable-background:new 0 0 512 512" xml:space="preserve"><circle r="32" cx="32" cy="32" fill="#ffffff" shape="circle"></circle><g transform="matrix(0.7,0,0,0.7,9.600967168807983,9.599801445007326)"><path d="M57 44h-2v-8a2 2 0 0 0-2-2h-2a2 2 0 0 0-2 2v8h-1V30a2 2 0 0 0-2-2h-2a2 2 0 0 0-2 2v14h-1V33a2 2 0 0 0-2-2h-2a2 2 0 0 0-2 2v11a1.001 1.001 0 0 1-1-1V27a1 1 0 0 0-2 0v16a3.003 3.003 0 0 0 3 3h22a1 1 0 0 0 0-2Zm-20 0-.001-11H39v11Zm7 0-.001-14H46v14Zm7 0-.001-8H53v8Zm-5-30a1 1 0 0 1 1-1h9a1 1 0 0 1 0 2h-9a1 1 0 0 1-1-1Zm-3 0a1 1 0 1 1 1 1 1 1 0 0 1-1-1Zm3 4a1 1 0 0 1 1-1h9a1 1 0 0 1 0 2h-9a1 1 0 0 1-1-1Zm0 4a1 1 0 0 1 1-1h9a1 1 0 0 1 0 2h-9a1 1 0 0 1-1-1Zm-3-4a1 1 0 1 1 1 1 1 1 0 0 1-1-1Zm0 4a1 1 0 1 1 1 1 1 1 0 0 1-1-1ZM59 7H9a3.003 3.003 0 0 0-3 3v13.05a3.483 3.483 0 0 0 0 6.9v4.69A12.989 12.989 0 1 0 26.521 50H59a3.003 3.003 0 0 0 3-3V10a3.003 3.003 0 0 0-3-3ZM5 26.5A1.5 1.5 0 1 1 6.5 28 1.502 1.502 0 0 1 5 26.5Zm9 6.55v10.352l-9.118 4.91A10.991 10.991 0 0 1 14 33.05Zm2 0A11.011 11.011 0 0 1 25.95 43H16ZM15 55a10.995 10.995 0 0 1-9.164-4.93L15.253 45h10.696A11.011 11.011 0 0 1 15 55Zm45-8a1.001 1.001 0 0 1-1 1H27.364A12.98 12.98 0 0 0 8 33.063v-3.414a3.495 3.495 0 0 0 2-3.149 3.458 3.458 0 0 0-.357-1.511l5.06-4.498a3.505 3.505 0 0 0 3.14.238l4.407 3.48a3.498 3.498 0 1 0 6.469-.072l5.78-4.775a3.489 3.489 0 1 0-1.247-1.563l-5.805 4.796a3.502 3.502 0 0 0-3.953.047l-4.072-3.215a3.499 3.499 0 1 0-6.063-.417l-5.064 4.501a3.475 3.475 0 0 0-.295-.16V10a1.001 1.001 0 0 1 1-1h50a1.001 1.001 0 0 1 1 1ZM17.56 18.56a1.5 1.5 0 1 1 0-2.12 1.502 1.502 0 0 1 0 2.12Zm9 8a1.5 1.5 0 1 1 0-2.12 1.502 1.502 0 0 1 0 2.12Zm8.88-11.12a1.5 1.5 0 1 1 0 2.12 1.502 1.502 0 0 1 0-2.12Z" fill="#f7af18" opacity="1" data-original="#000000"></path></g></svg>