<?xml version="1.0" encoding="UTF-8"?>
<svg xmlns="http://www.w3.org/2000/svg" id="Layer_1" data-name="Layer 1" viewBox="0 0 24 24">
  <path d="m17,5.42c0-1.886-1.534-3.42-3.42-3.42H3.42c-1.886,0-3.42,1.534-3.42,3.42,0,.815.292,1.606.824,2.226l5.176,6.04v4.021c0,.469.224.917.6,1.2l2.468,1.851c.214.161.468.243.724.243.184,0,.369-.042.541-.128.412-.206.667-.62.667-1.08v-6.106l5.177-6.04c.531-.62.823-1.41.823-2.226Zm-1.583,1.575l-5.297,6.18c-.078.09-.121.206-.121.325v6.291c0,.112-.072.164-.115.186-.042.021-.128.047-.218-.02l-2.467-1.851c-.125-.094-.2-.244-.2-.4v-4.207c0-.119-.042-.235-.121-.325L1.583,6.995c-.376-.438-.583-.998-.583-1.575,0-1.334,1.085-2.42,2.42-2.42h10.16c1.334,0,2.42,1.085,2.42,2.42,0,.577-.207,1.137-.583,1.575Zm8.583,12.505c0,.276-.224.5-.5.5h-10c-.276,0-.5-.224-.5-.5s.224-.5.5-.5h10c.276,0,.5.224.5.5Zm0-3c0,.276-.224.5-.5.5h-10c-.276,0-.5-.224-.5-.5s.224-.5.5-.5h10c.276,0,.5.224.5.5Zm0-3c0,.276-.224.5-.5.5h-9c-.276,0-.5-.224-.5-.5s.224-.5.5-.5h9c.276,0,.5.224.5.5Zm-7-3.5h6.5c.276,0,.5.224.5.5s-.224.5-.5.5h-6.5c-.276,0-.5-.224-.5-.5s.224-.5.5-.5Z"/>
</svg>
