<?xml version="1.0" encoding="UTF-8"?>
<svg xmlns="http://www.w3.org/2000/svg" id="Layer_1" data-name="Layer 1" viewBox="0 0 24 24">
  <path d="m10,11c0,3.416-.437,8.263-4.213,10.909-.087.062-.188.091-.287.091-.158,0-.312-.074-.41-.213-.158-.227-.104-.538.123-.696,3.395-2.379,3.787-6.898,3.787-10.091,0-1.654,1.346-3,3-3,1.422,0,2.658,1.01,2.94,2.4.055.271-.12.535-.391.59-.272.057-.535-.12-.59-.391-.188-.927-1.012-1.6-1.96-1.6-1.103,0-2,.897-2,2Zm4.504,3.003c-.258-.03-.52.171-.548.446-.249,2.416-.914,5.946-3.8,8.688-.2.19-.208.507-.018.707.098.104.23.155.362.155.124,0,.248-.046.344-.138,3.127-2.971,3.841-6.736,4.106-9.312.028-.274-.171-.52-.446-.548Zm2.777,6.063c-.26-.089-.546.042-.641.301-.368,1.022-.818,1.992-1.337,2.881-.14.238-.059.545.18.684.079.047.166.068.252.068.172,0,.339-.089.432-.248.549-.941,1.025-1.966,1.415-3.045.094-.26-.041-.547-.301-.641ZM12.085,4c-1.96,0-3.837.84-5.15,2.304-.184.206-.167.522.039.706.206.185.521.168.706-.038,1.123-1.253,2.728-1.972,4.405-1.972,3.261,0,5.915,2.653,5.915,5.915,0,1.395,0,3.729-.505,6.318-.053.271.125.534.396.587.032.006.064.009.097.009.234,0,.443-.166.49-.404.522-2.686.522-5.079.522-6.51,0-3.812-3.102-6.915-6.915-6.915Zm-6.066,6.541c.022-.275-.182-.517-.457-.539-.286-.018-.517.182-.54.457-.015.179-.022.359-.022.541,0,6.664-3.191,7.794-4.564,7.97-.273.035-.467.286-.432.56.033.253.248.437.496.437.021,0,.042,0,.064-.004,1.634-.21,5.436-1.504,5.436-8.962,0-.154.006-.308.019-.459Zm-4.519,3.459c.276,0,.5-.224.5-.5v-2.5C2,5.486,6.486,1,12,1c2.182,0,4.256.693,5.999,2.005.219.166.533.124.7-.099.166-.221.122-.534-.099-.7-1.918-1.443-4.2-2.206-6.601-2.206C5.935,0,1,4.935,1,11v2.5c0,.276.224.5.5.5Zm20.399-7.793c-.119-.248-.42-.353-.668-.23-.248.12-.352.42-.23.668.663,1.364.999,2.829.999,4.355,0,2.191,0,7.321-2.229,12.296-.113.252,0,.548.252.66.066.03.136.044.204.044.19,0,.373-.11.456-.296,2.317-5.168,2.317-10.449,2.317-12.704,0-1.679-.37-3.292-1.101-4.793Z"/>
</svg>
