<?xml version="1.0" encoding="UTF-8"?>
<svg xmlns="http://www.w3.org/2000/svg" id="Layer_1" data-name="Layer 1" viewBox="0 0 24 24">
  <path d="m23.199,9.659l-1.31-1.619c-1.049-1.297-2.607-2.04-4.275-2.04h-2.767s-.002,0-.003,0H6.374c-1.659,0-3.213.737-4.263,2.023,0,0-1.277,1.566-1.28,1.571-1.28,1.68-1.046,4.094.518,5.483l8.337,8.043c.658.585,1.482.878,2.308.878.834,0,1.669-.299,2.338-.896l8.312-7.993c1.568-1.4,1.813-3.735.556-5.45Zm-2.087-.99l1.295,1.601c.169.23.301.476.397.73h-5.852c-.067-.537-.203-1.067-.408-1.579l-.969-2.421h2.039c1.364,0,2.64.608,3.498,1.669Zm-9.122,13.198l-3.643-7.773c-.255-.676-.37-1.387-.345-2.094h7.997c-.022.566-.133,1.127-.334,1.66l-3.675,8.207Zm-3.856-10.867c.062-.271.145-.539.25-.801,0,0,1.264-3.168,1.27-3.199h4.845l1.117,2.792c.157.393.266.798.327,1.208h-7.81Zm-5.247-2.344c.858-1.053,2.13-1.656,3.487-1.656h2.214l-1.132,2.828c-.153.382-.267.774-.344,1.172H1.19c.102-.279.245-.546.431-.793l1.266-1.551Zm-.859,5.688c-.688-.611-1.036-1.478-1.022-2.345h5.997c-.024.832.116,1.673.423,2.482l3.955,8.443c-.368-.094-.718-.273-1.017-.538L2.027,14.345Zm19.937.031l-8.312,7.993c-.307.274-.665.458-1.04.554l3.977-8.883c.25-.661.386-1.35.409-2.041h6.002s.001,0,.002,0c.022.872-.331,1.745-1.038,2.376ZM11.5,3.5V.5c0-.276.224-.5.5-.5s.5.224.5.5v3c0,.276-.224.5-.5.5s-.5-.224-.5-.5Zm4.571-.257l1.5-2.5c.144-.236.453-.313.686-.172.237.142.314.449.172.686l-1.5,2.5c-.094.156-.26.243-.429.243-.088,0-.177-.022-.257-.071-.237-.142-.314-.449-.172-.686ZM5.571,1.257c-.143-.236-.065-.544.172-.686.235-.142.543-.064.686.172l1.5,2.5c.143.236.065.544-.172.686-.08.049-.169.071-.257.071-.169,0-.335-.087-.429-.243l-1.5-2.5Z"/>
</svg>
