<svg xmlns="http://www.w3.org/2000/svg" version="1.1" xmlns:xlink="http://www.w3.org/1999/xlink" width="512" height="512" x="0" y="0" viewBox="0 0 512 512" style="enable-background:new 0 0 512 512" xml:space="preserve" class=""><g><path d="m165.698 312.674-8-18.577c-1.16-2.695-4.042-4.312-7.163-2.968l-24.391 10.503c-3.119 1.344-3.478 5.197-2.256 8.032 1.343 3.12 4.327 5.367 7.447 4.023l14.324-6.167 5.007 11.628c5.374 12.479 1.497 21.043-8.998 25.561-10.635 4.581-19.238 1.392-24.611-11.088l-17.771-41.267c-5.376-12.48-1.782-20.921 8.854-25.502 12.338-5.313 19.018.049 23.411 7.909 1.73 3.625 5.683 3.436 9.654 1.727 4.963-2.138 6.904-4.655 4.402-10.469-6.901-16.026-24.628-20.495-43.631-12.311-17.301 7.45-27.615 22.145-17.723 45.119l17.771 41.267c9.893 22.974 27.374 25.702 45.384 17.946 17.869-7.694 28.183-22.392 18.29-45.366zM244.545 278.72l-17.771-41.267c-9.894-22.974-27.657-25.578-45.526-17.883-18.01 7.756-28.041 22.329-18.149 45.303l17.771 41.267c9.893 22.974 27.374 25.702 45.384 17.946 17.871-7.694 28.184-22.392 18.291-45.366zm-24.031 32.034c-10.636 4.581-19.238 1.392-24.611-11.088l-17.77-41.266c-5.375-12.48-1.78-20.921 8.855-25.502 10.495-4.519 19.38-1.452 24.754 11.028l17.771 41.267c5.373 12.48 1.496 21.043-8.999 25.561zM341.19 266.188c-.183-.427-.508-.79-.834-1.155l-67.651-79.803c-2.6-2.916-7.588-2.785-11.841-.952-4.255 1.832-7.635 5.304-7.304 9.197l11.351 104.048c.042.486.225.911.408 1.337 1.588 3.687 7.934 3.981 12.047 2.209 2.553-1.099 4.172-2.805 3.903-5.379l-2.857-22.641 35.028-15.084 14.487 17.632c1.685 1.963 4.038 1.961 6.448.922 4.255-1.833 8.341-6.786 6.815-10.331zm-64.706-6.599-6.765-54.749 35.129 42.535-28.364 12.214zM408.651 236.632c-1.465-3.403-4.431-5.994-7.408-4.712l-36.872 15.878-36.824-85.513c-1.465-3.403-5.763-3.233-9.592-1.584-3.687 1.588-6.905 4.654-5.44 8.057l40.427 93.881c1.405 3.262 5.54 3.498 8.803 2.093l45.237-19.481c2.979-1.283 3.073-5.359 1.669-8.619zM420.492 202.449c-8.855-20.563-18.004-46.884-26.858-67.446-1.894-4.397-6.336-5.34-10.448-3.57-4.256 1.832-6.479 5.647-4.585 10.043 8.854 20.562 21.548 45.356 30.403 65.919 1.344 3.121 4.65 3.379 7.77 2.035 2.27-.976 5.061-3.861 3.718-6.981zM433.464 224.77c-2.014-4.679-7.492-6.859-12.03-4.905-4.822 2.076-6.86 7.493-4.846 12.171 1.956 4.539 7.353 6.923 12.174 4.847 4.538-1.955 6.658-7.577 4.702-12.113z" fill="#f7af18" opacity="1" data-original="#000000"></path><path d="M505.536 148.548a12.47 12.47 0 0 0-7.838-7.012l-49.11-14.935-12.712-50.172a12.525 12.525 0 0 0-6.148-7.908 12.52 12.52 0 0 0-9.976-.85l-48.865 16.59-35.074-38.312c-4.581-5.005-12.433-5.409-17.508-.903l-38.722 34.399-45.693-24.616a12.487 12.487 0 0 0-16.609 4.529l-26.856 44.363-50.685-10.973a12.478 12.478 0 0 0-14.702 8.955l-13.514 50.112-51.597 4.494c-6.759.588-11.862 6.573-11.375 13.341l3.734 51.806-6.045 3.193a7.516 7.516 0 1 0 7.02 13.293l7.517-3.969a12.495 12.495 0 0 0 6.622-11.942l-3.673-50.962 50.873-4.431c5.203-.453 9.615-4.146 10.976-9.191l13.348-49.493 50.095 10.844a12.49 12.49 0 0 0 13.327-5.74l26.543-43.847 45.129 24.313c4.599 2.477 10.312 1.81 14.22-1.658l38.178-33.917 34.504 37.689a12.488 12.488 0 0 0 13.227 3.391l47.83-16.24 12.387 48.893a12.553 12.553 0 0 0 8.473 8.882l47.605 14.477-22.192 44.534a12.563 12.563 0 0 0 .629 12.262l4.173 6.58a7.518 7.518 0 0 0 12.697-8.051L482.346 205l22.894-45.942a12.464 12.464 0 0 0 .296-10.51zM510.062 248.714l-5.402-8.52a7.517 7.517 0 1 0-12.697 8.049l3.927 6.195-44.667 23.59a12.495 12.495 0 0 0-6.622 11.942l3.673 50.962-50.873 4.431c-5.204.453-9.615 4.146-10.976 9.191l-13.347 49.493-50.095-10.844a12.49 12.49 0 0 0-13.328 5.74l-26.543 43.846-45.128-24.311c-4.598-2.477-10.313-1.812-14.22 1.657l-38.179 33.917-34.502-37.687a12.49 12.49 0 0 0-13.229-3.393l-47.829 16.239-12.388-48.892a12.553 12.553 0 0 0-8.473-8.882L21.559 356.96l22.192-44.534a12.558 12.558 0 0 0-.629-12.261l-27.009-42.599 6.026-3.183a7.517 7.517 0 0 0-7.022-13.294l-8.461 4.468a12.532 12.532 0 0 0-6.238 7.834 12.52 12.52 0 0 0 1.522 9.898l27.714 43.712-22.895 45.943c-1.642 3.298-1.749 7.128-.293 10.511s4.313 5.937 7.837 7.01l49.11 14.935 12.712 50.17a12.531 12.531 0 0 0 6.147 7.909 12.52 12.52 0 0 0 9.977.851l48.865-16.59 35.074 38.311c2.449 2.674 5.832 4.036 9.225 4.036 2.956 0 5.922-1.034 8.283-3.132l38.722-34.399 45.693 24.615a12.482 12.482 0 0 0 16.609-4.528l26.856-44.362 50.685 10.971a12.48 12.48 0 0 0 14.702-8.955l13.513-50.112 51.598-4.494c6.758-.589 11.86-6.573 11.373-13.341l-3.734-51.806 45.631-24.099a12.532 12.532 0 0 0 6.238-7.834c.893-3.355.34-6.964-1.52-9.897z" fill="#f7af18" opacity="1" data-original="#000000"></path></g></svg>