<svg xmlns="http://www.w3.org/2000/svg" version="1.1" xmlns:xlink="http://www.w3.org/1999/xlink" width="512" height="512" x="0" y="0" viewBox="0 0 1707 1707" style="enable-background:new 0 0 512 512" xml:space="preserve" fill-rule="evenodd" class=""><g><g fill="#5a5a5a"><path d="M894 649H548c-11 0-20-9-20-20V460c0-11 9-20 20-20s20 9 20 20v149h307V460c0-11 9-20 19-20 11 0 20 9 20 20v169c0 11-9 20-20 20z" fill="#f7af18" opacity="1" data-original="#5a5a5a" class=""></path><path d="M721 532h-5l-320-98c-8-3-14-11-14-19 0-9 6-16 14-19l320-98c3-1 7-1 11 0l320 98c8 3 14 10 14 19 0 8-6 16-14 19l-320 98h-6zM469 415l252 77 253-77-253-78z" fill="#f7af18" opacity="1" data-original="#5a5a5a" class=""></path><path d="M402 548c-11 0-20-9-20-20V415c0-11 9-20 20-20 10 0 19 9 19 20v113c0 11-9 20-19 20z" fill="#f7af18" opacity="1" data-original="#5a5a5a" class=""></path><path d="M402 654c-40 0-72-32-72-71v-3c0-39 32-71 72-71 39 0 71 32 71 71v3c0 39-32 71-71 71zm0-106c-18 0-33 15-33 32v3c0 18 15 32 33 32 17 0 32-14 32-32v-3c0-17-15-32-32-32z" fill="#f7af18" opacity="1" data-original="#5a5a5a" class=""></path><path d="M1280 1572H110c-10 0-19-8-19-19V111c0-11 9-20 19-20h1170c11 0 20 9 20 20v1442c0 11-9 19-20 19zm-1150-39h1131V130H130z" fill="#f7af18" opacity="1" data-original="#5a5a5a" class=""></path></g><path fill="#000000" d="M295 221c-11 0-20-9-20-19V20c0-11 9-20 20-20s20 9 20 20v182c0 10-9 19-20 19zM562 221c-11 0-20-9-20-19V20c0-11 9-20 20-20s20 9 20 20v182c0 10-9 19-20 19zM829 221c-11 0-20-9-20-19V20c0-11 9-20 20-20s19 9 19 20v182c0 10-8 19-19 19zM1096 221c-11 0-20-9-20-19V20c0-11 9-20 20-20s19 9 19 20v182c0 10-8 19-19 19z" opacity="1" data-original="#cced00" class=""></path><path fill="#f7af18" d="M1099 770H292c-11 0-20-9-20-20s9-20 20-20h807c11 0 20 9 20 20s-9 20-20 20zM810 980H292c-11 0-20-9-20-20 0-10 9-19 20-19h518c11 0 20 9 20 19 0 11-9 20-20 20zM720 1191H292c-11 0-20-9-20-20s9-20 20-20h428c11 0 20 9 20 20s-9 20-20 20zM774 1401H292c-11 0-20-9-20-19 0-11 9-20 20-20h482c11 0 19 9 19 20 0 10-8 19-19 19zM788 1707c-7 0-13-4-17-10l-77-134c-4-7-4-14 0-20 3-6 10-10 17-10h310c9 0 16 6 19 15 2 8-2 17-9 22l-233 134c-3 2-6 3-10 3zm-43-135 50 88 152-88zm535-149c-3 0-7-1-10-3-6-4-9-10-9-17V673c0-9 6-16 14-19 9-2 18 2 22 10l316 547c6 9 2 21-7 27l-316 182c-3 2-6 3-10 3zm20-676v622l269-156z" opacity="1" data-original="#5a5a5a" class=""></path><path fill="#000000" d="M947 1479c-139 0-253-114-253-253 0-140 114-253 253-253 140 0 253 113 253 253 0 139-113 253-253 253zm0-467c-118 0-213 96-213 214 0 117 95 213 213 213s214-96 214-213c0-118-96-214-214-214z" opacity="1" data-original="#cced00" class=""></path><path fill="#000000" d="M1028 1234c-11 0-20-9-20-20v-88c0-11 9-20 20-20s20 9 20 20v88c0 11-9 20-20 20z" opacity="1" data-original="#cced00" class=""></path><path fill="#000000" d="M1072 1189h-88c-11 0-20-8-20-19s9-20 20-20h88c11 0 20 9 20 20s-9 19-20 19zM925 1266H823c-11 0-20-9-20-20s9-20 20-20h102c11 0 20 9 20 20s-9 20-20 20z" opacity="1" data-original="#cced00" class=""></path><path fill="#000000" d="M925 1345c-10 0-19-9-19-19v-130c0-17-14-31-32-31s-32 14-32 31v130c0 10-9 19-19 19-11 0-20-9-20-19v-130c0-39 32-70 71-70s71 31 71 70v130c0 10-9 19-20 19z" opacity="1" data-original="#cced00" class=""></path></g></svg>