<svg xmlns="http://www.w3.org/2000/svg" version="1.1" xmlns:xlink="http://www.w3.org/1999/xlink" width="512" height="512" x="0" y="0" viewBox="0 0 64 64" style="enable-background:new 0 0 512 512" xml:space="preserve" class=""><g><path d="M32 64C14.4 64 0 49.6 0 32S14.4 0 32 0s32 14.4 32 32-14.4 32-32 32zm0-62.1C15.4 1.9 1.9 15.4 1.9 32S15.4 62.1 32 62.1 62.1 48.6 62.1 32 48.6 1.9 32 1.9z" fill="#000000" opacity="1" data-original="#000000" class=""></path><path d="M47.7 23.7c-.5 0-1-.4-1-1 0-2.6-2.2-4.6-5-4.6-2.7 0-5 2.1-5 4.6 0 .5-.4 1-1 1s-1-.4-1-1c0-3.6 3.1-6.6 6.9-6.6s6.9 3 6.9 6.6c.2.6-.2 1-.8 1zm-19.5 0c-.5 0-1-.4-1-1 0-2.6-2.2-4.6-5-4.6-2.7 0-5 2.1-5 4.6 0 .5-.4 1-1 1-.5 0-1-.4-1-1 0-3.6 3.1-6.6 6.9-6.6s6.9 3 6.9 6.6c.1.6-.3 1-.8 1zM32 42.5c-9.1 0-17.2-3.4-21.3-9-.3-.4-.2-1 .2-1.4.4-.3 1-.2 1.4.2 3.7 5.1 11.3 8.2 19.8 8.2s16-3.1 19.8-8.2c.3-.4.9-.5 1.4-.2.4.3.5.9.2 1.4-4.3 5.6-12.4 9-21.5 9z" fill="#000000" opacity="1" data-original="#000000" class=""></path><path d="M10 37.2c-.5 0-1-.4-1-1 0-3 2.5-5.5 5.5-5.5.5 0 1 .4 1 1 0 .5-.4 1-1 1-2 0-3.6 1.6-3.6 3.6.1.5-.3.9-.9.9zm44 0c-.5 0-1-.4-1-1 0-2-1.6-3.6-3.6-3.6-.5 0-1-.4-1-1 0-.5.4-1 1-1 3 0 5.5 2.5 5.5 5.5 0 .7-.4 1.1-.9 1.1z" fill="#000000" opacity="1" data-original="#000000" class=""></path></g></svg>