<?xml version="1.0" encoding="UTF-8"?>
<svg xmlns="http://www.w3.org/2000/svg" id="Layer_1" data-name="Layer 1" viewBox="0 0 24 24">
  <path d="M20.08,8.593c-.836-.886-1.938-1.416-3.08-1.543v-2.05c0-2.757-2.243-5-5-5S7,2.243,7,5v2.049c-1.159,.128-2.276,.675-3.114,1.586-.968,1.052-1.468,2.433-1.371,3.788,.258,3.605,3.685,7.731,6.967,10.221,.723,.548,1.617,.852,2.517,.855h.014c.897,0,1.747-.286,2.459-.827,3.234-2.46,6.811-6.745,7.02-10.337,.078-1.346-.436-2.71-1.41-3.743ZM12,1c2.206,0,4,1.794,4,4v2.031c-1.727,.171-3.258,1.201-4.009,2.588-.218-.397-.503-.775-.846-1.114-.849-.839-1.992-1.347-3.146-1.461v-2.044c0-2.206,1.794-4,4-4Zm1.865,20.877c-.536,.407-1.177,.623-1.854,.623h-.01c-.685-.002-1.365-.233-1.917-.652-3.001-2.277-6.339-6.22-6.572-9.496-.077-1.082,.327-2.189,1.109-3.04,.758-.824,1.789-1.304,2.828-1.317,.01,0,.019,0,.029,0,.007,0,.013,.004,.021,.004,.005,0,.009-.003,.014-.003,1.081,.004,2.146,.446,2.929,1.219,.672,.664,1.058,1.496,1.058,2.284,0,.276,.224,.5,.5,.5s.5-.224,.5-.5c0-1.651,1.704-3.495,3.985-3.503,.005,0,.009,.003,.015,.003,.005,0,.009-.003,.014-.003,1.038,.004,2.072,.47,2.839,1.282,.786,.833,1.201,1.926,1.139,2.999-.191,3.277-3.569,7.273-6.627,9.6Zm-1.365-6.377v2c0,.276-.224,.5-.5,.5s-.5-.224-.5-.5v-2c0-.276,.224-.5,.5-.5s.5,.224,.5,.5Z"/>
</svg>
