<svg xmlns="http://www.w3.org/2000/svg" version="1.1" xmlns:xlink="http://www.w3.org/1999/xlink" width="512" height="512" x="0" y="0" viewBox="0 0 512 512" style="enable-background:new 0 0 512 512" xml:space="preserve" class=""><g><linearGradient id="a" x1="256" x2="256" y1="500.999" y2="11.001" gradientUnits="userSpaceOnUse"><stop stop-opacity="1" stop-color="#4099d4" offset="0"></stop><stop stop-opacity="1" stop-color="#6762ad" offset="0"></stop><stop stop-opacity="1" stop-color="#f7af18" offset="0"></stop></linearGradient><path fill="url(#a)" fill-rule="evenodd" d="M253.84 285.07c50.46 0 91.52-41.06 91.52-91.54 0-50.47-41.06-91.53-91.52-91.53s-91.56 41.06-91.56 91.53c-.01 50.48 41.1 91.54 91.56 91.54zM256 21c129.56 0 235 105.42 235 235 0 61.41-23.7 117.38-62.41 159.29-13.92-32.68-36.49-60.81-65.65-81.71-32.07-22.95-69.79-35.4-109.06-35.99a.33.33 0 0 0-.14 0c-38.66.58-75.86 12.68-107.6 34.98-28.83 20.26-51.4 47.62-65.7 79.48C43.48 370.52 21 315.84 21 256 21 126.42 126.44 21 256 21zm173.25 61.76c46.28 46.28 71.76 107.8 71.76 173.24s-25.49 126.97-71.76 173.24C382.98 475.52 321.46 501 256 501c-65.42 0-126.98-25.48-173.25-71.76C36.47 382.97 10.98 321.44 10.98 256S36.47 129.04 82.74 82.76C129.02 36.49 190.58 11 256 11c65.46 0 126.98 25.49 173.25 71.76z" clip-rule="evenodd" opacity="1" data-original="url(#a)" class=""></path></g></svg>