<?xml version="1.0" encoding="UTF-8"?>
<svg xmlns="http://www.w3.org/2000/svg" id="Layer_1" data-name="Layer 1" viewBox="0 0 24 24">
  <path d="m13.854,6.853l-3.146,3.146,3.146,3.146c.195.195.195.512,0,.707-.098.098-.226.146-.354.146s-.256-.049-.354-.146l-3.146-3.146-3.146,3.146c-.098.098-.226.146-.354.146s-.256-.049-.354-.146c-.195-.195-.195-.512,0-.707l3.146-3.146-3.146-3.146c-.195-.195-.195-.512,0-.707s.512-.195.707,0l3.146,3.146,3.146-3.146c.195-.195.512-.195.707,0s.195.512,0,.707Zm10,17c-.098.098-.226.146-.354.146s-.256-.049-.354-.146l-6.443-6.443c-1.775,1.607-4.12,2.596-6.697,2.596C4.492,20.006.006,15.52.006,10.006S4.492.006,10.006.006s10,4.486,10,10c0,2.577-.989,4.922-2.596,6.697l6.443,6.443c.195.195.195.512,0,.707Zm-4.848-13.848c0-4.962-4.037-9-9-9S1.006,5.043,1.006,10.006s4.037,9,9,9,9-4.038,9-9Z"/>
</svg>
