<?xml version="1.0" encoding="UTF-8"?>
<svg xmlns="http://www.w3.org/2000/svg" id="Layer_1" data-name="Layer 1" viewBox="0 0 24 24">
  <path d="m21,14.99c0,.547-.443.99-.99.99s-.99-.443-.99-.99.443-.99.99-.99.99.443.99.99Zm-5-4.99c.552,0,1-.452,1-1.01s-.448-1.01-1-1.01-1,.452-1,1.01.448,1.01,1,1.01Zm8,2c0,6.617-5.383,12-12,12h-.016C5.367,24-.016,18.617-.016,12S5.367,0,11.984,0s12.016,5.383,12.016,12Zm-1,0c0-6.065-4.935-11-11-11S.984,5.935.984,12s4.935,11,11,11h.016c6.065,0,11-4.935,11-11ZM6.837,8h-3.337c-.276,0-.5.224-.5.5s.224.5.5.5h3.337c.079,0,.12.048.138.077.018.028.042.087.019.134l-3.429,6.042c-.136.24-.052.546.188.682.078.045.163.065.246.065.174,0,.343-.091.436-.253l3.441-6.065c.181-.362.163-.785-.051-1.13s-.583-.551-.989-.551Zm7.163,2.5v3c0,1.379-1.122,2.5-2.5,2.5s-2.5-1.121-2.5-2.5v-3c0-1.378,1.122-2.5,2.5-2.5s2.5,1.122,2.5,2.5Zm-1,0c0-.827-.673-1.5-1.5-1.5s-1.5.673-1.5,1.5v3c0,.827.673,1.5,1.5,1.5s1.5-.673,1.5-1.5v-3Zm7.791-2.407c-.226-.161-.538-.109-.698.116l-5,7c-.16.226-.108.537.116.698.089.062.19.093.291.093.155,0,.31-.073.407-.209l5-7c.16-.225.108-.537-.116-.697Z"/>
</svg>
