<?xml version="1.0" encoding="UTF-8"?>
<svg xmlns="http://www.w3.org/2000/svg" id="Layer_1" data-name="Layer 1" viewBox="0 0 24 24">
  <path d="m21.016,14.99c0,.547-.443.99-.99.99s-.99-.443-.99-.99.443-.99.99-.99.99.443.99.99Zm-5-4.99c.552,0,1-.452,1-1.01s-.448-1.01-1-1.01-1,.452-1,1.01.448,1.01,1,1.01Zm8,2c0,6.617-5.383,12-12,12h-.016C5.383,24,0,18.617,0,12S5.383,0,12,0s12.016,5.383,12.016,12Zm-1,0c0-6.065-4.935-11-11-11S1,5.935,1,12s4.935,11,11,11h.016c6.065,0,11-4.935,11-11Zm-17.433,1.498c1.141-.779,2.433-1.662,2.433-2.998,0-1.378-1.122-2.5-2.5-2.5s-2.5,1.122-2.5,2.5c0,.276.224.5.5.5s.5-.224.5-.5c0-.827.673-1.5,1.5-1.5s1.5.673,1.5,1.5c0,.808-1.015,1.501-1.997,2.172-1.03.704-2.003,1.368-2.002,2.312-.002.072,0,.449.276.734.125.128.348.282.707.282h3.5c.276,0,.5-.224.5-.5s-.224-.5-.5-.5h-3.484c0-.432.833-1.001,1.567-1.502Zm5.917-2.498h-1.5v-1.5c0-.276.224-.5.5-.5h2.5c.276,0,.5-.224.5-.5s-.224-.5-.5-.5h-2.5c-.827,0-1.5.673-1.5,1.5v1.5c0,.551.449,1,1,1h1.5c.827,0,1.5.673,1.5,1.5s-.673,1.5-1.5,1.5h-2c-.276,0-.5.224-.5.5s.224.5.5.5h2c1.378,0,2.5-1.122,2.5-2.5s-1.122-2.5-2.5-2.5Zm9.291-2.907c-.226-.16-.538-.108-.698.116l-5,7c-.16.225-.108.537.116.697.089.063.19.093.291.093.155,0,.31-.073.407-.209l5-7c.16-.225.108-.537-.116-.697Z"/>
</svg>
