<?xml version="1.0" encoding="UTF-8"?>
<svg xmlns="http://www.w3.org/2000/svg" id="Layer_1" data-name="Layer 1" viewBox="0 0 24 24">
  <path d="m2.233,5.912c-.228-.156-.285-.468-.129-.695C4.348,1.95,8.047,0,12,0s7.652,1.95,9.896,5.217c.156.228.099.539-.129.695-.086.06-.185.088-.283.088-.159,0-.316-.076-.413-.217-2.057-2.995-5.448-4.783-9.071-4.783S4.985,2.788,2.929,5.783c-.156.228-.467.287-.695.129Zm18.838,12.305c-2.057,2.995-5.448,4.783-9.071,4.783s-7.015-1.788-9.071-4.783c-.156-.227-.467-.285-.695-.129-.228.156-.285.468-.129.695,2.243,3.267,5.942,5.217,9.896,5.217s7.652-1.95,9.896-5.217c.156-.228.099-.539-.129-.695-.226-.156-.539-.098-.695.129ZM7.5,8c1.378,0,2.5,1.121,2.5,2.5v3c0,1.379-1.122,2.5-2.5,2.5s-2.5-1.121-2.5-2.5v-3c0-1.379,1.122-2.5,2.5-2.5Zm0,1c-.827,0-1.5.673-1.5,1.5v3c0,.827.673,1.5,1.5,1.5s1.5-.673,1.5-1.5v-3c0-.827-.673-1.5-1.5-1.5Zm6-1c1.378,0,2.5,1.121,2.5,2.5v3c0,1.379-1.122,2.5-2.5,2.5s-2.5-1.121-2.5-2.5v-3c0-1.379,1.122-2.5,2.5-2.5Zm0,1c-.827,0-1.5.673-1.5,1.5v3c0,.827.673,1.5,1.5,1.5s1.5-.673,1.5-1.5v-3c0-.827-.673-1.5-1.5-1.5Zm8.51,5c-.547,0-.99.443-.99.99s.443.99.99.99.99-.443.99-.99-.443-.99-.99-.99Zm-3.99-4c.552,0,1-.452,1-1.01s-.448-1.01-1-1.01-1,.452-1,1.01.448,1.01,1,1.01ZM3,15.5c0,.276.224.5.5.5s.5-.224.5-.5v-6.632c0-.353-.21-.667-.536-.802-.323-.133-.696-.061-.996.248l-1.373,1.892c-.162.224-.112.536.111.698.224.162.535.112.699-.11l1.095-1.518v6.224Zm14.209.407c.088.062.189.093.29.093.156,0,.31-.073.407-.209l5-7c.161-.226.108-.537-.116-.698-.224-.159-.536-.106-.697.116l-5,7c-.161.226-.108.537.116.698Z"/>
</svg>
