<svg xmlns="http://www.w3.org/2000/svg" version="1.1" xmlns:xlink="http://www.w3.org/1999/xlink" width="512" height="512" x="0" y="0" viewBox="0 0 512 512" style="enable-background:new 0 0 512 512" xml:space="preserve" class=""><circle r="256" cx="256" cy="256" fill="#ffffff" shape="circle" transform="matrix(1,0,0,1,0,0)"></circle><g transform="matrix(0.7,0,0,0.7,76.80000000000001,76.80000000000001)"><path d="M126.264 241.528c63.557 0 115.264-51.707 115.264-115.264S189.821 11 126.264 11 11 62.708 11 126.264s51.707 115.264 115.264 115.264zm0-210.528c52.528 0 95.264 42.735 95.264 95.264s-42.735 95.264-95.264 95.264S31 178.793 31 126.264 73.736 31 126.264 31zm138.254 253.957c-21.544 21.543-30.381 49.91-24.884 79.877a116.227 116.227 0 0 1 1.894 20.902c0 63.557-51.707 115.264-115.264 115.264S11 449.293 11 385.736s51.707-115.264 115.264-115.264c7.019 0 14.052.637 20.904 1.894 29.968 5.498 58.333-3.341 79.875-24.883l20.438-20.439c21.543-21.543 30.381-49.911 24.884-79.876a116.147 116.147 0 0 1-1.894-20.903c0-63.557 51.707-115.264 115.264-115.264 42.999 0 82.133 23.671 102.127 61.776 2.566 4.891.683 10.935-4.208 13.501-4.893 2.566-10.935.682-13.501-4.208-16.53-31.501-48.877-51.069-84.418-51.069-52.528 0-95.264 42.735-95.264 95.264 0 5.812.526 11.631 1.565 17.295 6.718 36.625-4.083 71.296-30.413 97.626l-20.438 20.439c-21.225 21.224-47.874 32.357-76.593 32.359-6.908 0-13.931-.644-21.032-1.946a96.134 96.134 0 0 0-17.297-1.565c-52.528 0-95.264 42.735-95.264 95.264s42.735 95.264 95.264 95.264 95.264-42.735 95.264-95.264c0-5.812-.526-11.63-1.565-17.295-6.718-36.625 4.083-71.296 30.413-97.627l20.438-20.439c26.33-26.33 61.002-37.13 97.625-30.413a96.127 96.127 0 0 0 17.297 1.566c35.541 0 67.888-19.569 84.417-51.07 2.564-4.889 8.607-6.773 13.501-4.208 4.891 2.566 6.774 8.611 4.208 13.501-19.993 38.106-59.126 61.777-102.126 61.777-7.02 0-14.053-.637-20.904-1.894-29.97-5.496-58.333 3.341-79.875 24.883zM501 125.889v.75c0 5.523-4.478 10-10 10s-10-4.477-10-10v-.75c0-5.523 4.478-10 10-10s10 4.477 10 10zM385.736 270.472c-63.557 0-115.264 51.707-115.264 115.264S322.179 501 385.736 501 501 449.293 501 385.736s-51.707-115.264-115.264-115.264zm0 210.527c-52.528 0-95.264-42.735-95.264-95.264s42.735-95.264 95.264-95.264S481 333.206 481 385.735s-42.735 95.264-95.264 95.264zM77.201 126.264c0-5.523 4.478-10 10-10h29.063V87.201c0-5.523 4.478-10 10-10s10 4.477 10 10v29.063h29.062c5.522 0 10 4.477 10 10s-4.478 10-10 10h-29.062v29.063c0 5.523-4.478 10-10 10s-10-4.477-10-10v-29.063H87.201c-5.522 0-10-4.477-10-10zm343.229-20.55-20.551 20.551 20.551 20.551c3.905 3.905 3.905 10.236 0 14.142-1.953 1.953-4.512 2.929-7.071 2.929s-5.118-.977-7.071-2.929l-20.55-20.55-20.551 20.551c-1.953 1.952-4.513 2.929-7.071 2.929s-5.118-.976-7.071-2.929c-3.905-3.905-3.905-10.237 0-14.142l20.552-20.551-20.552-20.551c-3.905-3.905-3.905-10.236 0-14.142 3.906-3.905 10.236-3.905 14.143 0l20.551 20.551 20.55-20.55c3.907-3.905 10.237-3.905 14.143 0s3.905 10.237 0 14.142zM165.327 375.736c5.522 0 10 4.478 10 10s-4.478 10-10 10H87.201c-5.522 0-10-4.478-10-10s4.478-10 10-10zM434.8 358.323c0 5.522-4.478 10-10 10h-78.127c-5.522 0-10-4.478-10-10s4.478-10 10-10H424.8c5.522 0 10 4.478 10 10zm0 54.826c0 5.522-4.478 10-10 10h-78.127c-5.522 0-10-4.478-10-10s4.478-10 10-10H424.8c5.522 0 10 4.478 10 10z" fill="#fa8efe" opacity="1" data-original="#000000"></path></g></svg>