<?xml version="1.0" encoding="UTF-8"?>
<svg xmlns="http://www.w3.org/2000/svg" id="Layer_1" data-name="Layer 1" viewBox="0 0 24 24">
  <path d="m23.854,23.146l-7.295-7.295c1.517-1.684,2.442-3.912,2.442-6.351C19,4.262,14.738,0,9.5,0S0,4.262,0,9.5s4.262,9.5,9.5,9.5c2.44,0,4.667-.925,6.351-2.442l7.295,7.295c.098.098.226.146.354.146s.256-.049.354-.146c.195-.195.195-.512,0-.707ZM1,9.5C1,4.813,4.813,1,9.5,1s8.5,3.813,8.5,8.5-3.813,8.5-8.5,8.5S1,14.187,1,9.5Zm10.5-3.5c-.836,0-1.552.364-2,.949-.448-.585-1.164-.949-2-.949-1.379,0-2.5,1.193-2.5,2.66,0,1.901,2.279,4.222,3.484,5.183.3.239.657.358,1.016.358s.716-.119,1.015-.358c1.206-.961,3.485-3.281,3.485-5.183,0-1.467-1.121-2.66-2.5-2.66Zm-1.609,7.062c-.229.184-.552.184-.782,0-1.291-1.029-3.108-3.075-3.108-4.401,0-.915.673-1.66,1.5-1.66.883,0,1.5.602,1.5,1.464,0,.276.224.5.5.5s.5-.224.5-.5c0-.862.617-1.464,1.5-1.464.827,0,1.5.745,1.5,1.66,0,1.326-1.817,3.372-3.109,4.401Z"/>
</svg>
