<svg xmlns="http://www.w3.org/2000/svg" version="1.1" xmlns:xlink="http://www.w3.org/1999/xlink" width="512" height="512" x="0" y="0" viewBox="0 0 345 345" style="enable-background:new 0 0 512 512" xml:space="preserve" class=""><g><path fill="#f7af18" d="M302.52 92.48c7.26 20.23-.71 43-13.27 60.41-.91 1.26-18.88 23.72-38.21 21.78 5.8 3.87 11.28 9.78 14 16.8 5.38 14.13 1.51 33.46-12 45.06-17.5 15-35.3 18.86-56.91 10.54-22.35-8.61-37.33-40-37.81-41.47 0 7.73-9.67 21.26-19.7 28.05-25.89 17.52-69.23 8.68-84.69-22.25-9.67-21.26-9.67-52.19 13.53-65.73-27.06-17.4-27.62-48.21-27.66-53.42-.15-20.84 9.33-43.1 27.34-53.58 25.45-14.79 61.24 6.9 61.86 5.49 5.6-22.13 27.38-39.61 44.73-41.8s36.83 4.08 48.66 18.34c7.44 9 15.18 18.64 15.18 38 0 0 6.39-1 10.69-2.05 11-2.71 41.44.09 54.26 35.83z" opacity="1" data-original="#fec200" class=""></path><path fill="#000000" d="M217.27 253.29a60.76 60.76 0 0 1-21.9-4.42c-17.52-6.75-31-27.41-36.4-37.41-2.95 8-10.84 18-19.33 23.78-13.24 9-31.55 11.59-49 7-17.21-4.51-31.25-15.45-38.53-30-10.29-22.67-9.3-52.24 11.76-66.63-23.9-17.08-26-45-26.07-53.35C37.63 68.78 48.74 47.09 66.11 37c21.09-12.26 48.78-.54 59.2 3.87l2.27.95c6.57-22.2 28.66-39.21 45.85-41.37 19-2.4 38.81 5.07 50.39 19 7 8.49 15 18.07 15.59 36.93 2.23-.38 5.71-1 8.34-1.65 10.34-2.51 42.91-1.08 56.59 37.08 6.6 18.41 1.67 41.08-13.52 62.19-.16.23-15.53 20.39-34.19 22.53a37.24 37.24 0 0 1 10.17 14.24c6.06 15.92.77 35.78-12.57 47.21-11.95 10.26-24.02 15.31-36.96 15.31zm-59-49.63a1.93 1.93 0 0 1 1.83 1.32c1.4 3.79 16.36 32.45 36.68 40.28 20.55 7.91 37.49 4.76 55-10.2 13.76-11.8 16.19-30.51 11.47-42.9A34.81 34.81 0 0 0 250 176.27a1.93 1.93 0 0 1-.75-2.26 2 2 0 0 1 2-1.27c18.68 1.84 36.28-20.76 36.44-21 6.83-9.49 21.78-34.2 13-58.62C288 57.64 258.1 56.21 248.65 58.5c-4.32 1-10.58 2-10.85 2.08a1.91 1.91 0 0 1-1.56-.44 1.94 1.94 0 0 1-.68-1.47c0-19-7.83-28.41-14.73-36.74C210.08 9 191.67 2 173.91 4.28c-16.4 2.07-37.63 18.78-43.09 40.36a2.08 2.08 0 0 1-.11.32c-.91 2-2.54 1.32-6.9-.52-9.94-4.2-36.33-15.37-55.75-4.09-16.2 9.4-26.55 29.77-26.39 51.88.08 10.45 2.84 36.42 26.77 51.81a1.93 1.93 0 0 1-.07 3.3c-21.53 12.56-22.71 41.33-12.75 63.26 6.75 13.51 19.9 23.71 36 27.93 16.36 4.28 33.49 1.86 45.82-6.48 9.51-6.44 18.85-19.54 18.85-26.45a1.93 1.93 0 0 1 1.62-1.91z" opacity="1" data-original="#42210b" class=""></path><path fill="#ffe880" d="M124.41 82.06c-13.56 14.64-19.11 36.61-13 55.6s24.25 33.82 44.16 34.94c10.9.61 21.65-2.57 31.83-6.5 9.11-3.51 18.19-7.79 25.08-14.7 13.31-13.36 16-35.26 8.61-52.63-6.05-14.29-18-25.43-31.76-32.29-13.91-6.94-29.2-5.32-43.37.64a62.36 62.36 0 0 0-21.55 14.94z" opacity="1" data-original="#ffe880" class=""></path><path fill="#000000" d="M158.27 174.6q-1.39 0-2.78-.08c-20.49-1.15-39.36-16.07-45.89-36.27-6.27-19.38-1-42 13.39-57.5a64.58 64.58 0 0 1 22.26-15.41c16.39-6.89 31.95-7.09 45-.59 15.2 7.58 26.8 19.4 32.67 33.26 8 18.88 4.29 41.39-9 54.75-7.44 7.46-17.19 11.84-25.76 15.14-8.25 3.17-18.9 6.7-29.89 6.7zm11.39-110.72a59.3 59.3 0 0 0-22.92 5 60.71 60.71 0 0 0-20.92 14.48c-13.47 14.54-18.39 35.62-12.55 53.69 6 18.42 23.8 32.55 42.43 33.6 11.21.62 22.48-3.07 31-6.37 8.18-3.16 17.48-7.32 24.41-14.27 12.23-12.27 15.6-33 8.2-50.52-5.51-13-16.47-24.14-30.84-31.31a41.78 41.78 0 0 0-18.81-4.3zM148.1 341.6a2 2 0 0 1-.5-.06 1.93 1.93 0 0 1-1.37-2.36c10.87-41.1 14.26-86 10.09-133.41a1.93 1.93 0 0 1 1.76-2.1 1.91 1.91 0 0 1 2.1 1.76c4.21 47.87.78 93.2-10.21 134.74a1.93 1.93 0 0 1-1.87 1.43z" opacity="1" data-original="#42210b" class=""></path><path fill="#ffffff" d="M60.44 103.87a1.93 1.93 0 0 1-1.74-1.09 28.13 28.13 0 0 1 .46-25.06 1.93 1.93 0 0 1 3.41 1.81 24.21 24.21 0 0 0-.4 21.56 1.93 1.93 0 0 1-1.74 2.78zM65.73 113a1.92 1.92 0 0 1-1.47-.68l-2.74-3.22a1.93 1.93 0 0 1 2.94-2.51l2.74 3.22a1.93 1.93 0 0 1-1.47 3.19zM267.51 158.28a1.93 1.93 0 0 1-1.15-3.49 40.93 40.93 0 0 0 13.86-18.47 1.93 1.93 0 0 1 3.62 1.34 44.78 44.78 0 0 1-15.19 20.24 1.92 1.92 0 0 1-1.14.38zM283.86 131a1.93 1.93 0 0 1-1.88-2.39l1.49-6.11a1.93 1.93 0 0 1 3.76.91l-1.49 6.11a1.93 1.93 0 0 1-1.88 1.48z" opacity="1" data-original="#ffffff" class=""></path><path fill="#00bf63" d="M187.87 293.62c6.24-2.67 13.31-4.44 19.78-2.39 8.23 2.6 13.7 11.29 13.74 19.92s-4.76 16.84-11.52 22.19-15.3 8.1-23.86 9.15-17.23.51-25.84-.09c-5.83-.4-12.41-1.25-10.62-8.47 1.47-5.93 5.43-11.9 9-16.77a71.46 71.46 0 0 1 29.32-23.54z" opacity="1" data-original="#61b776" class=""></path><path fill="#000000" d="M175.3 345c-5.43 0-10.68-.36-15.26-.68s-9.16-.89-11.45-4c-1.29-1.77-1.6-4.07-.92-6.84 1.55-6.27 5.57-12.34 9.3-17.44a73 73 0 0 1 30.14-24.17c8.26-3.54 15.17-4.34 21.12-2.46 8.71 2.75 15.05 11.9 15.09 21.75 0 8.75-4.55 17.61-12.25 23.71-6.45 5.11-14.8 8.32-24.83 9.55a90.2 90.2 0 0 1-10.94.58zm26.32-52.74a33.51 33.51 0 0 0-13 3.13 69.17 69.17 0 0 0-28.54 22.9c-3.3 4.52-7.27 10.44-8.67 16.09-.4 1.63-.31 2.81.29 3.63 1.42 2 6.09 2.27 8.59 2.45 9.49.66 17.4 1.08 25.47.1 9.31-1.14 17-4.08 22.9-8.74 6.78-5.37 10.82-13.1 10.79-20.67 0-8.22-5.24-15.83-12.38-18.08a18 18 0 0 0-5.44-.81zM151.88 315.35a61.35 61.35 0 0 0-33-40.36l1.66-3.49a65.25 65.25 0 0 1 35.06 42.93z" opacity="1" data-original="#42210b" class=""></path><path fill="#00bf63" d="M119.41 280.71a15 15 0 0 0 8.61-5.38c7.21-9.55-4.15-22.89-14.18-15.71-7.93 5.69-6.94 23.95 5.57 21.09z" opacity="1" data-original="#61b776" class=""></path><g fill="#42210b"><path d="M117 282.94a9.37 9.37 0 0 1-8.88-5.82c-2.53-5.63-1.25-14.85 4.65-19.07a11.72 11.72 0 0 1 15.66 1.36 12.94 12.94 0 0 1 1.19 17.08 16.78 16.78 0 0 1-9.72 6.1 13 13 0 0 1-2.9.35zm2.86-23.42a8.25 8.25 0 0 0-4.86 1.68c-4.18 3-5.25 10.17-3.37 14.34 1.35 3 3.83 4.1 7.38 3.3a13.11 13.11 0 0 0 7.5-4.66 9.14 9.14 0 0 0-.87-12.06 8.2 8.2 0 0 0-5.83-2.61zM151.43 339.9a1.93 1.93 0 0 1-1.39-3.28 113.36 113.36 0 0 1 59.82-32.06 1.93 1.93 0 1 1 .71 3.8 109.47 109.47 0 0 0-57.76 31 1.93 1.93 0 0 1-1.38.54zM153.34 101a3.45 3.45 0 0 1-1.94-.6 4.4 4.4 0 0 1-1.64-2.25 10.91 10.91 0 0 1-.12-5.51c0-.26.06-.59.09-1 .16-2 .42-5.25 3.14-6.07a3.21 3.21 0 0 1 3 .48c1.63 1.3 1.46 3.85 1.37 5.21-.14 2.07-.35 4.16-.62 6.2a4 4 0 0 1-1.55 3 3.13 3.13 0 0 1-1.73.54zM176.54 102.89a3.45 3.45 0 0 1-1.94-.6A4.4 4.4 0 0 1 173 100a10.91 10.91 0 0 1-.12-5.51c0-.26.06-.59.09-1 .16-2 .42-5.25 3.14-6.07a3.21 3.21 0 0 1 3 .48c1.63 1.3 1.46 3.85 1.37 5.21-.14 2.07-.35 4.16-.62 6.2a4 4 0 0 1-1.55 3 3.13 3.13 0 0 1-1.77.58zM162.87 121.95q-.61 0-1.24-.06a14.39 14.39 0 0 1-12.8-17.19 1.93 1.93 0 0 1 3.79.77A10.52 10.52 0 0 0 162 118a8.16 8.16 0 0 0 4.39-.73 9.61 9.61 0 0 0 4-4.28 32.7 32.7 0 0 0 2.19-6.38 1.93 1.93 0 0 1 3.73 1 35.43 35.43 0 0 1-2.48 7.14 13.23 13.23 0 0 1-5.69 6 11.7 11.7 0 0 1-5.27 1.2z" fill="#000000" opacity="1" data-original="#42210b" class=""></path></g><path fill="#ff81ff" d="M190.52 111.78a3.11 3.11 0 0 1-1.08-.19 3.37 3.37 0 0 1-2-2.41 6.56 6.56 0 0 1 1-5.26 3.39 3.39 0 0 1 3.81-1.08 4.2 4.2 0 0 1 2.72 3.87 5.47 5.47 0 0 1-1.16 3.3 4.08 4.08 0 0 1-3.29 1.77zM136.4 109.85a3.11 3.11 0 0 1-1.08-.19 3.37 3.37 0 0 1-2-2.41 6.56 6.56 0 0 1 1-5.26 3.39 3.39 0 0 1 3.81-1.08 4.2 4.2 0 0 1 2.72 3.87 5.47 5.47 0 0 1-1.16 3.3 4.08 4.08 0 0 1-3.29 1.77z" opacity="1" data-original="#ff81ff" class=""></path></g></svg>