<svg xmlns="http://www.w3.org/2000/svg" version="1.1" xmlns:xlink="http://www.w3.org/1999/xlink" width="512" height="512" x="0" y="0" viewBox="0 0 512 512" style="enable-background:new 0 0 512 512" xml:space="preserve" class=""><g transform="matrix(1,0,0,1,0,0)"><linearGradient id="a" x1="256" x2="256" y1="441.46" y2="70.54" gradientUnits="userSpaceOnUse"><stop stop-opacity="1" stop-color="#9345ff" offset="0"></stop><stop stop-opacity="1" stop-color="#f7af18" offset="0"></stop><stop stop-opacity="1" stop-color="#ff5a00" offset="1"></stop></linearGradient><path fill="url(#a)" fill-rule="evenodd" d="M195.453 102.554C101.866 102.554 26 178.421 26 272.007S101.866 441.46 195.453 441.46s169.453-75.867 169.453-169.453c0-6.249-.348-12.416-1.008-18.49l-42.482-11.383a129.765 129.765 0 0 1 3.471 29.872c0 71.485-57.95 129.435-129.435 129.435S66.017 343.491 66.017 272.006s57.95-129.435 129.435-129.435c34.396 0 65.654 13.421 88.834 35.306l11.39-42.507c-28.07-20.625-62.721-32.816-100.224-32.816zm0 136.618a32.69 32.69 0 0 1 20.068 6.847l90.372-52.179 16.808-62.73 104.91-60.57-16.807 62.726 5.113-2.952c5.959-3.452 13.589-1.419 17.041 4.541s1.419 13.589-4.541 17.041l-5.143 2.969L486 171.672l-104.911 60.57-62.721-16.807-31.493 18.183c4.965 11.806 7.711 24.775 7.711 38.386 0 54.75-44.384 99.133-99.133 99.133s-99.134-44.383-99.134-99.133 44.383-99.133 99.134-99.133c22.913 0 44.009 7.776 60.797 20.832l-35.911 20.735a62.483 62.483 0 0 0-24.886-5.137c-34.631 0-62.705 28.074-62.705 62.704s28.074 62.704 62.705 62.704 62.704-28.074 62.704-62.704c0-6.97-1.138-13.673-3.237-19.936l-26.927 15.547c.192 1.436.293 2.9.293 4.389 0 18.133-14.7 32.833-32.833 32.833s-32.833-14.7-32.833-32.833 14.7-32.833 32.833-32.833z" opacity="1" data-original="url(#a)"></path></g></svg>