<svg xmlns="http://www.w3.org/2000/svg" version="1.1" xmlns:xlink="http://www.w3.org/1999/xlink" width="512" height="512" x="0" y="0" viewBox="0 0 512 512" style="enable-background:new 0 0 512 512" xml:space="preserve" class=""><g><path d="M468 253H313a6 6 0 0 0-6 6v35a6 6 0 0 0 6 6h155a6 6 0 0 0 6-6v-35a6 6 0 0 0-6-6Zm-7 35H319v-23h142ZM333.563 482.4a24.006 24.006 0 1 0-24.006-24.005 24.033 24.033 0 0 0 24.006 24.005Zm0-36.011a12.006 12.006 0 1 1-12.006 12.006 12.019 12.019 0 0 1 12.006-12.008ZM390.513 482.4a24.006 24.006 0 1 0-24.006-24.005 24.033 24.033 0 0 0 24.006 24.005Zm0-36.011a12.006 12.006 0 1 1-12.006 12.006 12.019 12.019 0 0 1 12.006-12.008ZM447.464 482.4a24.006 24.006 0 1 0-24.006-24.005 24.033 24.033 0 0 0 24.006 24.005Zm0-36.011a12.006 12.006 0 1 1-12.006 12.006 12.018 12.018 0 0 1 12.006-12.008ZM333.563 429.425a24.006 24.006 0 1 0-24.006-24.006 24.033 24.033 0 0 0 24.006 24.006Zm0-36.011a12.006 12.006 0 1 1-12.006 12 12.019 12.019 0 0 1 12.006-12ZM390.513 429.425a24.006 24.006 0 1 0-24.006-24.006 24.033 24.033 0 0 0 24.006 24.006Zm0-36.011a12.006 12.006 0 1 1-12.006 12 12.019 12.019 0 0 1 12.006-12ZM447.464 429.425a24.006 24.006 0 1 0-24.006-24.006 24.033 24.033 0 0 0 24.006 24.006Zm0-36.011a12.006 12.006 0 1 1-12.006 12 12.018 12.018 0 0 1 12.006-12ZM333.563 376.453a24.006 24.006 0 1 0-24.006-24.006 24.033 24.033 0 0 0 24.006 24.006Zm0-36.012a12.006 12.006 0 1 1-12.006 12.006 12.02 12.02 0 0 1 12.006-12.006ZM390.513 376.453a24.006 24.006 0 1 0-24.006-24.006 24.033 24.033 0 0 0 24.006 24.006Zm0-36.012a12.006 12.006 0 1 1-12.006 12.006 12.02 12.02 0 0 1 12.006-12.006ZM447.464 376.453a24.006 24.006 0 1 0-24.006-24.006 24.033 24.033 0 0 0 24.006 24.006Zm0-36.012a12.006 12.006 0 1 1-12.006 12.006 12.019 12.019 0 0 1 12.006-12.006ZM222.051 309h-62.5a6 6 0 0 0 0 12h62.5a6 6 0 0 0 0-12ZM130.985 321h6.1a6 6 0 0 0 0-12h-6.1a6 6 0 0 0 0 12ZM213.146 360h-32.638a6 6 0 0 0 0 12h32.638a6 6 0 0 0 0-12ZM157.066 360h-26.081a6 6 0 0 0 0 12h26.081a6 6 0 1 0 0-12ZM107 46.806a6 6 0 0 0-6 6v2.413a6 6 0 0 0 12 0v-2.413a6 6 0 0 0-6-6ZM107 72.649a6 6 0 0 0-6 6v79.478a6 6 0 0 0 12 0V78.649a6 6 0 0 0-6-6ZM230.6 64.854a88.536 88.536 0 1 0 88.536 88.536A88.636 88.636 0 0 0 230.6 64.854ZM307 149h-63.525l45.282-45.282A76.176 76.176 0 0 1 307 149Zm-76.4-72.146a76.185 76.185 0 0 1 49.672 18.379l-49.643 49.643L191.561 87.6A76.056 76.056 0 0 1 230.6 76.854Zm0 153.071a76.5 76.5 0 0 1-48.843-135.409l43.557 63.865a6 6 0 0 0 4.957 2.619h76.485a76.641 76.641 0 0 1-76.156 68.925Z" fill="#ffffff" opacity="1" data-original="#000000" class=""></path><path d="M470.609 228H390V98.739a16.68 16.68 0 0 0-4.724-11.746l-75.021-76.919A16.817 16.817 0 0 0 298.267 5H88.412A16.513 16.513 0 0 0 72 21.811V38H56.038a16.761 16.761 0 0 0-12 4.711A16.324 16.324 0 0 0 39 54.366V64H26.9a16.618 16.618 0 0 0-11.933 4.733A16.3 16.3 0 0 0 10 80.409v398.577A17.076 17.076 0 0 0 26.912 496h258.079a30.33 30.33 0 0 0 23.4 11h162.218A30.392 30.392 0 0 0 501 476.609V258.391A30.392 30.392 0 0 0 470.609 228ZM307 23.909 370.093 89h-32.718a30.39 30.39 0 0 1-21.486-9.14A30.739 30.739 0 0 1 307 58.139ZM51 54.359a4.407 4.407 0 0 1 1.531-3.172A4.875 4.875 0 0 1 56.049 50H72v371.472A16.25 16.25 0 0 0 88.424 438H278v19H56.053A5.328 5.328 0 0 1 51 451.854ZM26.915 484a5.009 5.009 0 0 1-3.452-1.51A5.074 5.074 0 0 1 22 478.983V80.4a4.385 4.385 0 0 1 1.461-3.194A4.731 4.731 0 0 1 26.912 76H39v375.856A17.329 17.329 0 0 0 56.049 469H278v7.609a30.412 30.412 0 0 0 .91 7.391ZM278 258.391v53.363a5.992 5.992 0 0 0-5.041-2.754h-22.452a6 6 0 0 0 0 12h22.452a5.992 5.992 0 0 0 5.041-2.754V360h-41.784a6 6 0 0 0 0 12H278v54H88.427a4.225 4.225 0 0 1-3.208-1.267A4.3 4.3 0 0 1 84 421.47V21.8a4.506 4.506 0 0 1 4.424-4.8H295v41.136A42.779 42.779 0 0 0 337.369 101H378v127h-69.609A30.392 30.392 0 0 0 278 258.391Zm212 218.218A18.515 18.515 0 0 1 471.489 495H308.874C298.733 495 290 486.75 290 476.609V321h200ZM490 309H290v-50.588c0-10.141 8.733-18.412 18.874-18.412h162.615A18.533 18.533 0 0 1 490 258.412Z" fill="#ffffff" opacity="1" data-original="#000000" class=""></path></g></svg>