<?xml version="1.0" encoding="UTF-8"?>
<svg xmlns="http://www.w3.org/2000/svg" id="Layer_1" data-name="Layer 1" viewBox="0 0 24 24">
  <path d="M8.5,8c-1.379,0-2.5,1.122-2.5,2.5v3c0,1.378,1.121,2.5,2.5,2.5s2.5-1.122,2.5-2.5v-3c0-1.378-1.121-2.5-2.5-2.5Zm1.5,5.5c0,.827-.673,1.5-1.5,1.5s-1.5-.673-1.5-1.5v-3c0-.827,.673-1.5,1.5-1.5s1.5,.673,1.5,1.5v3Zm8,1.49c0,.547-.443,.99-.99,.99s-.99-.443-.99-.99,.443-.99,.99-.99,.99,.443,.99,.99Zm-6-6c0-.558,.448-1.01,1-1.01s1,.452,1,1.01-.448,1.01-1,1.01-1-.452-1-1.01Zm-.016-8.99C5.367,0-.016,5.383-.016,12s5.383,12,12,12h.016c6.617,0,12-5.383,12-12S18.617,0,11.984,0Zm.016,23h-.016C5.919,23,.984,18.065,.984,12S5.919,1,12,1s11,4.935,11,11-4.935,11-11,11Zm5.907-14.209l-5,7c-.098,.137-.252,.209-.407,.209-.101,0-.202-.03-.291-.093-.225-.16-.276-.473-.116-.697l5-7c.161-.226,.472-.277,.698-.116,.225,.16,.276,.473,.116,.697Z"/>
</svg>
